<svg version="1" xmlns="http://www.w3.org/2000/svg" width="682.667" height="682.667" viewBox="0 0 512.000000 512.000000"><path d="M0 256v256h512V0H0v256zM114.4 73.1c35.7 14.3 66.2 27 67.9 28.2 3.4 2.6 6.7 8.5 6.7 12.3 0 7.2-6.8 13.8-14.4 13.7-3 0-19.1-6.3-62.5-24.2C80 89.8 53.6 79 53.5 79.2c-.2.2 5.7 24.8 13.1 54.7 7.4 29.9 13.4 55.5 13.4 57 0 7.1-7.1 12.6-15.4 11.8-4.1-.4-5.5-1.1-8.1-3.9-2.9-3.2-4.1-7.3-18.3-64.1C29.8 101.3 23 72.1 23 69.8c0-8.7 6.8-18.6 14.6-21.3 8.2-3 8.5-2.9 76.8 24.6zm363.5-23.5c6.1 3.1 10.6 8.6 11.6 14.2.5 2.9-2.9 17.8-15 66.7-8.6 34.7-16.3 64-17.1 65.3-3.7 5.7-13.5 8-19.4 4.6-3.6-2.2-6-6.4-6-10.6 0-1.8 6.1-27.4 13.5-56.8 7.3-29.4 13.2-53.6 13-53.8-.4-.4-108 44-113.8 46.9-10.1 5.1-20.7-1-20.7-12.1 0-4.8 2.6-10.2 5.8-11.9 1-.5 14.2-6.1 29.3-12.5 15.1-6.3 44.1-18.5 64.4-27C457.3 48.4 461 47.1 466.6 47c4.5 0 7.3.6 11.3 2.6zm-139.3 94.2c36 9.5 65.1 35.5 77.9 69.7 5 13 6.5 22.6 7.2 43.2.5 16.8.8 19.3 2.2 19.3.9 0 8.8-1.1 17.6-2.5 18.8-2.9 22.6-3 26.6-1 9.3 4.9 9.1 20.4-.4 24.8-1.7.8-13 2.8-24.9 4.3l-21.8 2.8V329h26.3c24.4 0 26.4.1 29.5 2 9.8 6 9.4 20.1-.8 25.2-3.1 1.6-6.7 1.8-29.2 1.8h-25.7l-.6 4.7c-.3 2.7-1.1 7.8-1.8 11.5l-1.4 6.8 3.1.5c1.7.3 12.8 1.6 24.6 3 23.2 2.7 24.4 3.1 28.8 9.5 5.6 8.3.2 20-9.9 21.6-2.7.5-43.2-4.9-54-7.2-2.3-.4-3 .2-6.1 5.3-12.1 19.5-31.9 35.8-54.3 44.6-17.8 7-15.5 6.8-99.5 6.5-86.5-.4-79.9.3-101.6-10.3-18.8-9.1-34.4-22.6-45.1-38.9-2.6-3.9-4.7-7.2-4.8-7.3 0-.1-11.7 1.6-26 3.7-14.3 2.2-27.3 4-28.9 4-7.7 0-15.6-9.1-14.2-16.5.8-4.2 4.5-8.8 8.3-10.4 1.6-.6 13.1-2.6 25.6-4.5 12.5-1.8 23-3.5 23.3-3.8.3-.3.1-2.3-.5-4.4-.6-2.2-1.3-7.2-1.7-11.2l-.7-7.2H59.8c-28.4 0-29.2-.2-34.2-6-4.8-5.7-3.2-15.7 3.2-20.5 2.5-1.9 4.5-2 30.5-2.3l27.7-.3v-24.5l-21.7-2.8c-12-1.5-23.2-3.4-24.9-4.1-10.2-4.2-10.4-19.8-.4-25 3.9-2 6-1.9 26 1 9.5 1.4 17.8 2.5 18.5 2.5.9 0 1.4-4.7 1.8-20.3.4-17.4.8-21.5 3-29.9 12.4-47.2 52.4-81.1 99.7-84.6 5.2-.4 39.2-.5 75.5-.2 63.5.6 66.3.7 74.1 2.8z"/><path d="M181.9 170.5c-24.6 5-46.6 21.7-58.3 44.5-7.4 14.2-8.8 21.2-9.3 45.2-.4 17-.3 20.8.8 20.8.8 0 12.9 1.3 26.9 2.9 27.7 3 29.2 3.4 33 9.7 5.3 8.4.3 19.7-9.5 21.8-2.4.5-32.6-3.2-48.2-5.9l-3.3-.6v20l27.1.3 27 .3 4 4.2c3.4 3.7 3.9 4.8 3.9 9 0 5.7-2.6 10.5-7.2 13.3-3.1 1.9-5.1 2-29.2 2h-25.8l.7 5.7c1.2 10.1 2.6 14.4 4.4 13.9 6.1-1.7 43.9-6.7 46.9-6.1 7.1 1.3 12.3 10.2 10.2 17.4-1.1 3.9-3.4 6.8-7.1 8.6-2.5 1.3-29.3 5.5-35.1 5.5-1.5 0-2.8.4-2.8.9s3.6 4.3 8.1 8.5c13.4 12.6 28.3 20.1 45.8 23.1 7.8 1.4 18.5 1.6 73.9 1.3 62.9-.4 64.9-.4 72.5-2.6 10.4-2.9 22.8-8.9 30.4-14.6 5.8-4.4 15.3-14 15.3-15.5 0-.4-6.6-1.5-14.7-2.5-20.4-2.5-22.1-2.9-26.1-6.9-6.5-6.6-5.1-16.7 3-21.7 4.3-2.6 5.6-2.5 30.3 1.4 11.6 1.8 21.3 3.2 21.7 3 .9-.6 3.1-13.5 2.7-16.4l-.4-2.5-26.5-.5c-25.4-.5-26.6-.6-29.6-2.7-8.4-6-8.2-18.5.3-24 2.4-1.6 6.2-1.9 30.3-2.3l27.5-.5.3-9.9c.3-9.8.3-9.8-2-9.3-1.3.3-12.7 2-25.5 3.7l-23.2 3.2-4.3-2.1c-5.4-2.7-7.9-6.1-8.5-11.5-.5-5.1 2.1-10.3 6.6-13 2.3-1.3 10.4-2.8 28.9-5.2 14.1-1.9 26-3.4 26.5-3.4 1.1 0 .9-22.2-.4-34.1-2-19.8-9.9-37.5-22.7-51.1-8.5-9-15.2-13.9-25.5-18.8-16.3-7.8-12.1-7.4-88.7-7.7-53.7-.1-69.9.1-75.1 1.2z"/></svg>