<?xml version="1.0" encoding="utf-8"?>
<!-- Generator: Adobe Illustrator 24.0.2, SVG Export Plug-In . SVG Version: 6.00 Build 0)  -->
<svg version="1.1" id="Layer_1" xmlns="http://www.w3.org/2000/svg" xmlns:xlink="http://www.w3.org/1999/xlink" x="0px" y="0px"
	 viewBox="0 0 42 37.6" style="enable-background:new 0 0 42 37.6;" xml:space="preserve">
<title>Mixed_UI 2 outline</title>
<g>
	<path d="M2.7,13c0.1,0.6,0.6,1,1.2,1c0.1,0,0.2,0,0.3,0c0.7-0.2,1.1-0.9,0.9-1.5L2.7,2.8l10.4,4.3c0.6,0.3,1.4,0,1.7-0.6
		c0.3-0.6,0-1.4-0.6-1.7c0,0-0.1,0-0.1-0.1L2.9,0.2C1.8-0.3,0.6,0.2,0.2,1.3C0,1.7,0,2.2,0.1,2.6L2.7,13z"/>
	<path d="M41.3,0.5c-0.6-0.5-1.4-0.7-2.2-0.4L27.9,4.8c-0.7,0.2-1,1-0.8,1.6c0.2,0.7,1,1,1.6,0.8c0,0,0.1,0,0.1-0.1l10.4-4.3
		l-2.4,9.6c-0.2,0.7,0.2,1.4,0.9,1.5c0,0,0,0,0,0c0.1,0,0.2,0,0.3,0c0.6,0,1.1-0.4,1.2-1l2.6-10.4C42.1,1.8,41.9,1,41.3,0.5z"/>
	<path d="M40.3,25.3h-4.4v-2.2l3.8-0.5c0.7-0.1,1.2-0.7,1.1-1.4c-0.1-0.7-0.7-1.2-1.4-1.1l-3.4,0.5v-2.1c0-5.6-4.5-10.1-10.1-10.1
		H15.8c-5.6,0-10.1,4.5-10.1,10.1v2.1l-3.4-0.5c-0.7-0.1-1.3,0.4-1.4,1.1c-0.1,0.7,0.4,1.3,1.1,1.4l3.8,0.5v2.2H1.3
		c-0.7,0-1.3,0.6-1.3,1.3s0.6,1.3,1.3,1.3h4.4c0,0.7,0.1,1.4,0.3,2.1l-4.1,0.6c-0.7,0.1-1.2,0.7-1.1,1.4c0.1,0.6,0.6,1.1,1.3,1.1
		c0.1,0,0.1,0,0.2,0l4.7-0.7c1.8,3.2,5.2,5.2,8.8,5.2h10.1c3.7,0,7-2,8.8-5.2l4.7,0.7c0.1,0,0.1,0,0.2,0c0.7,0,1.3-0.6,1.3-1.3
		c0-0.6-0.5-1.2-1.1-1.3L35.6,30c0.2-0.7,0.3-1.4,0.3-2.1h4.4c0.7,0,1.3-0.6,1.3-1.3S41,25.3,40.3,25.3L40.3,25.3z M33.1,29.7
		l-3.9-0.6c-0.7-0.1-1.3,0.4-1.4,1.1c-0.1,0.7,0.4,1.3,1.1,1.4l3,0.4c-1.4,1.9-3.7,3-6.1,3H15.8c-2.4,0-4.6-1.1-6.1-3l3-0.4
		c0.7-0.1,1.2-0.7,1.1-1.4c-0.1-0.7-0.7-1.2-1.4-1.1l-3.9,0.6c-0.2-0.6-0.3-1.2-0.3-1.8h4.3c0.7,0,1.3-0.6,1.3-1.3s-0.6-1.3-1.3-1.3
		H8.2v-1.8l4.2,0.6c0.1,0,0.1,0,0.2,0c0.7,0,1.3-0.6,1.3-1.3c0-0.6-0.5-1.2-1.1-1.3L8.2,21v-2.5c0-4.2,3.4-7.5,7.5-7.6h10.1
		c4.2,0,7.5,3.4,7.6,7.6V21l-4.5,0.6c-0.7,0.1-1.2,0.7-1.1,1.4c0.1,0.6,0.6,1.1,1.3,1.1c0.1,0,0.1,0,0.2,0l4.2-0.6v1.8H29
		c-0.7,0-1.3,0.6-1.3,1.3s0.6,1.3,1.3,1.3h4.3C33.4,28.5,33.3,29.1,33.1,29.7z"/>
</g>
</svg>
