<svg height="100" width="100" xmlns="http://www.w3.org/2000/svg"><path d="M35.5 63c7.6 0 14.6-3 19.7-7.9L60 60l-4.3 4.3c-.7.7-1 1.6-1 2.5 0 .9.4 1.8 1 2.5L73 86.6c2.7 2.7 5.8 4 8.8 4 2.6 0 5.1-1 7.1-3 4.4-4.4 4-11-1-16L70.7 54.3c-1.4-1.4-3.6-1.4-5 0l-4.3 4.3-4.9-4.9c4.6-5.1 7.4-11.8 7.4-19.2C64 18.8 51.2 6 35.5 6S7 18.8 7 34.5 19.8 63 35.5 63zm44.8 3.6l6.4 6.4c3.5 3.5 5.2 8.9 1 13.1-4.2 4.2-9.6 2.5-13.1-1l-6.4-6.4 12.1-12.1zm-1.5-1.4L66.7 77.3l-3.5-3.5 12.1-12.1 3.5 3.5zm-16.6-4.5l5-5c.3-.3.7-.4 1.1-.4s.8.1 1.1.4l4.6 4.6-12.3 12.1-4.6-4.6c-.6-.6-.6-1.6 0-2.2l5.1-4.9zM35.5 8C50.1 8 62 19.9 62 34.5S50.1 61 35.5 61 9 49.1 9 34.5 20.9 8 35.5 8z"/><path d="M35.5 57C47.9 57 58 46.9 58 34.5S47.9 12 35.5 12 13 22.1 13 34.5 23.1 57 35.5 57zm0-43C46.8 14 56 23.2 56 34.5S46.8 55 35.5 55 15 45.8 15 34.5 24.2 14 35.5 14z"/><path d="M36.5 19c.6 0 1-.4 1-1s-.4-1-1-1C26.3 17 18 25.3 18 35.5c0 .6.4 1 1 1s1-.4 1-1C20 26.4 27.4 19 36.5 19z"/></svg>