<svg xmlns="http://www.w3.org/2000/svg" viewBox="0 0 94 94"><path d="M47 94c-5.7 0-11.2-1-16.2-2.9-.2-.1-.3-.1-.4-.1-.1 0-.1 0-.2-.1C12.6 84.2 0 67 0 47 0 29.5 9.6 13.6 25 5.5c4.4-2.4 9-4 13.8-4.7C41.5.2 44.2 0 47 0c5 0 10 .8 14.7 2.4.2 0 .4.1.6.2.3.1.5.2.8.3 5.3 1.9 10.2 4.8 14.5 8.5 12.9 10.4 16 23.6 16.3 32.7 0 1 .1 1.9.1 2.9 0 18.9-11.2 35.2-27.2 42.6-.1 0-.2.1-.2.1l-.6.3c-5.9 2.5-12.3 4-19 4zm-14.9-5.1c2.1.6 7.9 2.2 15.2 2.2 6.3 0 12.2-1.1 17.5-3.3-.4-.5-1-1.2-1.3-1.6-.2-.2-.4-.4-.5-.6-.4-.5-.9-.7-1.9-.7h-1.5c-2 0-3.4-.1-5.1-.9-1.3-.6-2.1-.8-3.3-.1-2.5 1.4-4.9 2.6-8.3 2.4-.9-.1-1.8-.2-2.3-.8-.5-.7-.3-1.4-.2-2 0-.2.1-.4.1-.7v-.1c.2-1.6.1-1.6-.2-1.7-.7-.2-1.5.2-2.1.9-.3.3-.4.6-.6.8-.5.8-1 1.5-2.6 2.1-2.4.8-2.8 1.5-2.9 4.1zM6.9 27.5C4 33.5 2.4 40.1 2.4 47c0 18.4 11.2 34.2 27.2 41 .2-2.6 1-4.3 4.4-5.6.8-.3 1-.5 1.4-1.1.2-.3.4-.6.8-1 1.3-1.5 3.2-2.2 4.8-1.7 2.4.8 2 3.2 1.8 4.5v.1c0 .3-.1.5-.1.7h.2c2.7.2 4.5-.7 6.9-2.1.9-.5 1.8-.8 2.6-.8 1 0 1.9.3 2.9.7 1.3.5 2.4.7 4.1.7H61c1.3 0 2.7.2 3.8 1.5.1.1.3.3.4.5.7.8 1.3 1.5 1.7 2.2 9.2-4.7 16.6-12.5 20.8-22.1-1.8 1.7-3.7 3.2-5.5 4.5-1 .7-2.1 1.1-3.2 1.1s-2-.4-2.5-1.2c-.4-.6-.7-1.7 0-3.4l.6-1.2c.4-.7.7-1.4.8-2.1.1-.8.1-1.7 0-2.6v-1.4c0-3.1.5-4.6 1.8-7.4 1.3-2.6.9-5.7.5-7.8-.5-2.9-1-3.3-4.2-3.4-2.9-.1-5.9-.5-7.8-4-.8-1.5-1.1-1.9-2.3-2.9-1.7-1.4-1.7-2.6-1.7-4.3v-.2c0-1.6 0-2.8.8-4.4.2-.4.5-.8.7-1.2.6-1 1.1-1.7 1-2.8 0-1-.6-1.9-1.2-2.9-.6-.9-1.2-1.9-1.5-3.2-.1-.3-.1-.7-.2-1-.2-1.1-.2-1.1-.7-1.3-.3-.1-.8-.1-1.3 0-.3 0-.7.1-1.1.1-.6 0-1.1-.1-1.5-.3-1.7-.7-2.5-2.4-2-4.5.2-1 .6-2 1.3-2.9-5.3-1.4-10.8-1.9-16.3-1.3.8 1 1.5 2.3 1.8 3.3.8 2.3.4 4.3-1.1 5.4-.9.7-2.2.8-3.2.8-.5 0-1 0-1.6-.1-.7 0-1.5-.1-1.9 0-1.1.2-1.8.8-2.8 1.6-.3.2-.5.5-.8.7-.5.4-1.1.9-1.6 1.4-.9.8-1.8 1.6-2.7 2.3-.4.3-.9.5-1.2.7-.7.4-.8.4-1 1-.1.3-.1.7-.1 1-.1 1-.3 2.9-2.7 2.9-.3 0-.6 0-.9-.1-1-.1-1.7-.5-2.3-.9-.6-.3-1-.5-1.5-.5-1.1 0-2.2.8-2.4 1.9-.1.4 0 .6 0 .6.1.1.4.2 1.6.2h1.4c.3 0 .6.2.9.4.2.2.3.6.3.9-.1 1.2.2 2.3.8 2.9.5.5 1.1.6 1.9.3.5-.1.8-.3 1.2-.5.8-.4 1.6-.7 3-.7.8 0 1.3-.2 1.9-.5.4-.2.8-.4 1.4-.6.4-.1.8-.2 1.2-.2 2 0 3 1.5 3.8 2.7.5.8 1 1.5 1.6 1.6.3.1.7 0 1.2-.1.4-.1.7-.1 1.2-.1.8 0 1.4.2 2 .6.9.6 1.4 1.7 2 2.7.2.5.5.9.7 1.2.2.2.3.5.5.7.5.7 1 1.5 1.5 1.9.5.4 1 .5 2 .5.5 0 1.1 0 1.7.2 1.2.3 3.3 1.4 3.9 2.8.9 2.2-.5 3.7-1.4 4.6-.2.2-.4.4-.5.6-.7.8-.7 2.3-.7 3.8 0 1.8 0 3.6-1.2 4.7-.7.6-1.6.9-2.5 1.2-.5.2-1 .3-1.3.5-.7.4-1.7 1.2-2.1 2.2-.2.4-.3.8-.4 1.2-.3.9-.5 1.9-1.5 2.9-.3.3-.6.5-.8.6h-.1v.4c0 .5 0 1.2-.4 1.8-.5.7-1.1 1-1.7 1.3-.5.3-.8.4-1 .7-.6.9-.8 2-.6 2.8.1.3.2.6.3 1 .5 1.6 1.2 3.6.2 5.1-.5.8-1.4 1.3-2.5 1.4h-.6c-3.6 0-4.3-3.6-4.7-6-.1-.8-.3-1.5-.5-2-.3-.8-.8-1.4-1.3-2.1-.7-1.1-1.6-2.3-1.9-4-.2-1.5-.2-3.2 0-4.7.1-.5.3-1 .4-1.5.2-.7.5-1.5.4-2-.2-.8-1.2-1.4-2.2-2.2-1.3-.4-2.6-1.3-3.3-2.7-.2-.4-.4-.9-.5-1.2-.3-.7-.5-1.2-1-1.8-.2-.3-.5-.6-.8-1-.7-.8-1.4-1.5-1.8-2.5-.5-1.1-1-3.3-.5-4.9.2-.7.7-1.3 1.1-1.8.2-.2.4-.4.5-.6-1.3-.4-2.1-.9-3.3-2.4-.8-.9-1.1-1-2.3-1-.4 0-.9-.1-1.4-.1-2.3-.3-2.8-1.8-3.1-3-.1-.3-.2-.7-.4-1-.5-.9-1-1.6-1.6-2.2zm1.3-2.2c.9.9 1.8 1.9 2.4 3.2.2.5.4.9.5 1.3.3 1 .4 1.2 1.1 1.3.5.1.9.1 1.3.1 1.4.1 2.6.2 4.1 2 1.1 1.3 1.5 1.5 3.2 2 .5.1.8.5.9 1 .3 1.5-.6 2.5-1.2 3.3-.3.4-.6.7-.7 1-.2.8 0 2.3.4 3.1.3.6.9 1.3 1.4 1.9.3.3.6.7.9 1.1.7.9 1 1.7 1.3 2.4.1.3.3.7.4 1.1.4.8 1.3 1.5 2.3 2.2 1.3.9 2.6 1.9 3.1 3.5.3 1.2-.1 2.4-.4 3.4-.1.4-.3.8-.3 1.1-.2 1.2-.2 2.6 0 3.9.2 1.1.8 2 1.5 2.9.5.8 1.1 1.6 1.5 2.6.3.7.4 1.5.6 2.4.5 2.8 1 4 2.3 4h.3c.2 0 .6-.1.7-.3.3-.5-.2-2.1-.5-3-.1-.4-.3-.8-.4-1.2-.4-1.8.2-3.7.9-4.8.5-.9 1.3-1.3 1.9-1.6.3-.2.6-.3.8-.5v-.4c0-.5 0-1.1.3-1.6.4-.7.9-.9 1.2-1 0 0 .1 0 .1-.1.5-.6.7-1 .9-1.8.1-.4.2-.9.4-1.4.5-1.4 1.6-2.6 3.2-3.5.5-.3 1.2-.5 1.9-.7.6-.2 1.4-.4 1.6-.7.4-.4.4-1.8.4-2.9 0-1.8 0-3.9 1.2-5.4.2-.2.4-.5.6-.7.9-1 1.2-1.4.9-1.9-.2-.4-1.3-1.2-2.1-1.3-.4-.1-.8-.1-1.3-.1-1 0-2.2-.1-3.4-1.1-.8-.7-1.4-1.6-2-2.4-.2-.2-.3-.5-.4-.7-.3-.4-.6-1-.8-1.5-.4-.7-.8-1.5-1.2-1.8-.1-.1-.3-.1-.5-.1s-.5 0-.8.1c-.6.1-1.3.2-2 0-1.5-.3-2.4-1.6-3.1-2.6-.9-1.4-1.3-1.8-2.3-1.5-.4.1-.7.3-1.1.4-.7.3-1.5.7-2.9.7-.9 0-1.3.2-2 .5-.4.2-.9.4-1.5.6-1.8.6-3.4.2-4.5-.9-.8-.8-1.3-2.1-1.4-3.5h-.1c-1 0-2.6 0-3.5-1.1-.5-.7-.7-1.5-.5-2.6.5-2.2 2.5-3.8 4.8-3.8 1.2 0 2 .5 2.7.9.5.3.9.5 1.4.6.3 0 .6.1.8 0 0-.2.1-.4.1-.6 0-.4.1-.8.2-1.3.4-1.7 1.4-2.3 2.3-2.7.3-.2.6-.3.9-.5.8-.6 1.6-1.3 2.5-2.1.5-.5 1.1-1 1.7-1.5.3-.2.5-.4.7-.6 1.1-1 2.2-1.9 4.1-2.2.6-.1 1.4-.1 2.3 0 .5 0 1 .1 1.4.1 1.2 0 1.6-.2 1.7-.3.9-.7.8-1.7.6-2.4-.5-2.1-2.2-4-2.8-4.1-4.6.8-8.9 2.3-13 4.5-10.4 5.7-16.4 14.8-18 17.6zM62.9 9.1c.4 0 .8.1 1.2.2 2 .6 2.3 2.1 2.5 3.3 0 .3.1.5.1.8.2.9.7 1.6 1.2 2.5.7 1.1 1.5 2.4 1.5 4.1.1 1.8-.7 3-1.4 4.2-.2.3-.4.7-.6 1-.5 1-.5 1.8-.5 3.1v.2c0 1.5 0 1.7.8 2.4 1.4 1.2 1.9 1.8 2.9 3.6 1.1 2.1 2.8 2.6 5.7 2.7 3.8.2 5.7 1 6.5 5.4.5 2.5.9 6.1-.7 9.3-1.2 2.4-1.6 3.6-1.6 6.2v1.3c0 1 .1 1.9 0 2.9-.1 1.2-.6 2.2-1 3-.2.3-.3.7-.5 1-.3.7-.2 1-.2 1.1 0 0 .1.1.4.1.5 0 1.2-.2 1.8-.6 1.8-1.2 3.7-2.7 5.4-4.4 1.1-1 2-2.1 3.2-3.7.3-1.1 2.1-7 1.9-14.7-.7-12-6.2-23-15.4-31C72.2 10 67.5 7.2 62.2 5c-.3 0-.6 0-.8-.1-.4.2-1.4 1.4-1.5 2.8-.1 1.2.4 1.4.6 1.5.3.1.8.1 1.4 0 .3 0 .6-.1 1-.1z"/></svg>