<svg height="100" width="100" xmlns="http://www.w3.org/2000/svg"><path d="M87.1 24.2c-3.7-8.3-12-13.7-21.2-13.7-8 0-15.4 4.1-19.7 10.8-.4.7-.2 1.6.5 2.1.7.4 1.6.2 2.1-.5 3.7-5.9 10.1-9.4 17.2-9.4 8 0 15.2 4.7 18.5 11.9.2.6.8.9 1.4.9.2 0 .4 0 .6-.1.6-.4.9-1.3.6-2m5.8 9.5c0 14.9-12.1 27.1-27.1 27.1-14.9 0-27.1-12.1-27.1-27.1 0-14.9 12.1-27.1 27.1-27.1 15 0 27.1 12.1 27.1 27.1m6.1 0C99 15.4 84.1.5 65.8.5 47.5.5 32.6 15.4 32.6 33.7c0 7.3 2.4 14 6.4 19.4l-.2.2L2.5 89.6c-2 2-2 5.4 0 7.4 1 1 2.4 1.5 3.7 1.5 1.3 0 2.7-.5 3.7-1.5l36.3-36.3.2-.2c5.5 4 12.2 6.4 19.4 6.4 18.3-.1 33.2-15 33.2-33.2"/></svg>