<svg height="100" width="100" xmlns="http://www.w3.org/2000/svg"><path d="M22.617 39.874a6.177 6.177 0 014.608-1.596 10.31 10.31 0 015.068 1.72 10.107 10.107 0 011.796 1.519 15.186 15.186 0 013.273 5.579c.714 2.255.749 4.557-.362 6.28a4.971 4.971 0 01-.762.915 4.837 4.837 0 01-.885.66c-1.792 1.051-4.11.898-6.336.055a15.155 15.155 0 01-5.422-3.587 9.618 9.618 0 01-1.315-1.728 10.422 10.422 0 01-1.523-5.221 6.207 6.207 0 011.86-4.6zm15.859-18.387a5.663 5.663 0 015.005.668 11.016 11.016 0 013.77 4.264 10 10 0 01.587 1.34 18.814 18.814 0 01.864 7.95c-.32 2.948-1.43 5.582-3.528 6.693a4.754 4.754 0 01-.595.264 4.61 4.61 0 01-1.234.264c-1.932.131-3.796-.98-5.345-2.694a17.376 17.376 0 01-3.247-5.532 13.276 13.276 0 01-.8-3.545 12.973 12.973 0 01.877-5.919 6.495 6.495 0 013.646-3.745zm20.244.668a5.663 5.663 0 015.004-.668 6.483 6.483 0 013.646 3.744 13.04 13.04 0 01.877 5.92 13.442 13.442 0 01-.8 3.544 17.33 17.33 0 01-3.247 5.532c-1.549 1.715-3.413 2.826-5.345 2.694a4.543 4.543 0 01-1.234-.264 5.047 5.047 0 01-.595-.264c-2.098-1.11-3.205-3.744-3.528-6.693a18.813 18.813 0 01.864-7.95 10.246 10.246 0 01.587-1.34 11.015 11.015 0 013.77-4.264zm16.927 16.123a5.943 5.943 0 016.464 6.196 10.398 10.398 0 01-1.523 5.222 9.618 9.618 0 01-1.315 1.727 15.118 15.118 0 01-5.422 3.588c-2.225.838-4.544.991-6.336-.056a4.837 4.837 0 01-.885-.66 4.971 4.971 0 01-.762-.914c-1.11-1.724-1.076-4.026-.361-6.281a15.152 15.152 0 013.272-5.579 9.762 9.762 0 011.796-1.52 10.296 10.296 0 015.068-1.718zM39.025 56.42a14.291 14.291 0 0111.115-5.686 14.272 14.272 0 0111.115 5.685 21.187 21.187 0 014.435 13.243c0 7.834-5.609 9.157-12.162 9.157v.009c-1.383 0-2.954-.072-4.511-.149l-.145-.008c-.689-.034-1.212-.052-1.727-.073-7.264-.28-12.558-.49-12.558-8.936a21.178 21.178 0 014.434-13.243z" data-name="Layer 1"/></svg>