<svg xmlns="http://www.w3.org/2000/svg" viewBox="0 0 53.6 61.1"><path d="M48.5 7.1h-9.4V5.3c0-2.9-2.4-5.3-5.3-5.3H21c-2.9 0-5.3 2.4-5.3 5.3v1.8H5.1C2.3 7.1 0 9.4 0 12.2s2.3 5.1 5.1 5.1h2.1v35c0 4.9 3.9 8.8 8.8 8.8h22.8c4.9 0 8.8-3.9 8.8-8.8v-35h.9c2.8 0 5.1-2.3 5.1-5.1s-2.2-5.1-5.1-5.1zM18.8 5.3c0-1.2 1-2.3 2.3-2.3h12.8c1.2 0 2.3 1 2.3 2.3v1.8H18.8V5.3zm25.8 47.1c0 3.2-2.6 5.8-5.8 5.8H16c-3.2 0-5.8-2.6-5.8-5.8v-35h34.4v35zm3.9-38H5.1c-1.2 0-2.1-1-2.1-2.1s1-2.1 2.1-2.1h43.4c1.2 0 2.1 1 2.1 2.1s-.9 2.1-2.1 2.1z"/><path d="M18.8 48.9c.8 0 1.5-.7 1.5-1.5v-21c0-.8-.7-1.5-1.5-1.5s-1.5.7-1.5 1.5v21c0 .9.7 1.5 1.5 1.5zm8.5 0c.8 0 1.5-.7 1.5-1.5v-21c0-.8-.7-1.5-1.5-1.5s-1.5.7-1.5 1.5v21c0 .9.7 1.5 1.5 1.5zm8.5 0c.8 0 1.5-.7 1.5-1.5v-21c0-.8-.7-1.5-1.5-1.5s-1.5.7-1.5 1.5v21c0 .9.7 1.5 1.5 1.5z"/></svg>