<svg xmlns="http://www.w3.org/2000/svg" viewBox="0 0 42 37.6"><path d="M2.7 13c.1.6.6 1 1.2 1h.3c.7-.2 1.1-.9.9-1.5L2.7 2.8l10.4 4.3c.6.3 1.4 0 1.7-.6.3-.6 0-1.4-.6-1.7 0 0-.1 0-.1-.1L2.9.2C1.8-.3.6.2.2 1.3c-.2.4-.2.9-.1 1.3L2.7 13zM41.3.5c-.6-.5-1.4-.7-2.2-.4L27.9 4.8c-.7.2-1 1-.8 1.6.2.7 1 1 1.6.8 0 0 .1 0 .1-.1l10.4-4.3-2.4 9.6c-.2.7.2 1.4.9 1.5h.3c.6 0 1.1-.4 1.2-1l2.6-10.4c.3-.7.1-1.5-.5-2z"/><path d="M40.3 25.3h-4.4v-2.2l3.8-.5c.7-.1 1.2-.7 1.1-1.4-.1-.7-.7-1.2-1.4-1.1l-3.4.5v-2.1c0-5.6-4.5-10.1-10.1-10.1H15.8c-5.6 0-10.1 4.5-10.1 10.1v2.1l-3.4-.5c-.7-.1-1.3.4-1.4 1.1-.1.7.4 1.3 1.1 1.4l3.8.5v2.2H1.3c-.7 0-1.3.6-1.3 1.3s.6 1.3 1.3 1.3h4.4c0 .7.1 1.4.3 2.1l-4.1.6c-.7.1-1.2.7-1.1 1.4.1.6.6 1.1 1.3 1.1h.2l4.7-.7c1.8 3.2 5.2 5.2 8.8 5.2h10.1c3.7 0 7-2 8.8-5.2l4.7.7h.2c.7 0 1.3-.6 1.3-1.3 0-.6-.5-1.2-1.1-1.3l-4.2-.5c.2-.7.3-1.4.3-2.1h4.4c.7 0 1.3-.6 1.3-1.3s-.6-1.3-1.3-1.3zm-7.2 4.4l-3.9-.6c-.7-.1-1.3.4-1.4 1.1-.1.7.4 1.3 1.1 1.4l3 .4c-1.4 1.9-3.7 3-6.1 3h-10c-2.4 0-4.6-1.1-6.1-3l3-.4c.7-.1 1.2-.7 1.1-1.4-.1-.7-.7-1.2-1.4-1.1l-3.9.6c-.2-.6-.3-1.2-.3-1.8h4.3c.7 0 1.3-.6 1.3-1.3s-.6-1.3-1.3-1.3H8.2v-1.8l4.2.6h.2c.7 0 1.3-.6 1.3-1.3 0-.6-.5-1.2-1.1-1.3L8.2 21v-2.5c0-4.2 3.4-7.5 7.5-7.6h10.1c4.2 0 7.5 3.4 7.6 7.6V21l-4.5.6c-.7.1-1.2.7-1.1 1.4.1.6.6 1.1 1.3 1.1h.2l4.2-.6v1.8H29c-.7 0-1.3.6-1.3 1.3s.6 1.3 1.3 1.3h4.3c.1.6 0 1.2-.2 1.8z"/></svg>